<?xml version="1.0" encoding="utf-8"?>
<!-- Generator: Adobe Illustrator 22.0.1, SVG Export Plug-In . SVG Version: 6.00 Build 0)  -->
<svg version="1.1" id="图层_1" xmlns="http://www.w3.org/2000/svg" xmlns:xlink="http://www.w3.org/1999/xlink" x="0px" y="0px"
	 viewBox="0 0 176.5 25" style="enable-background:new 0 0 176.5 25;" xml:space="preserve">
<style type="text/css">
	.st0{fill:#00B373;}
	.st1{fill:#FFFFFF;}
</style>
<g>
	<path class="st0" d="M2.1,15.2c1.2,1,2.6,1.5,4.2,1.5c0.9,0,1.5-0.2,2-0.5s0.7-0.7,0.7-1.2c0-0.4-0.2-0.8-0.5-1.2S7,13.1,5.5,12.4
		C3.2,11.4,2,10,2,8.1c0-1.4,0.5-2.5,1.6-3.3s2.5-1.2,4.3-1.2c1.5,0,2.7,0.2,3.7,0.6v3c-1-0.7-2.2-1-3.6-1c-0.8,0-1.4,0.1-1.9,0.4
		S5.4,7.3,5.4,7.8c0,0.4,0.2,0.8,0.5,1.1S7,9.6,8.3,10.2c1.5,0.6,2.5,1.3,3.1,2s0.8,1.6,0.8,2.6c0,1.5-0.5,2.6-1.5,3.3
		s-2.5,1.1-4.4,1.1c-1.7,0-3.2-0.3-4.3-0.8V15.2z"/>
	<path class="st0" d="M14.1,15.2c1.2,1,2.6,1.5,4.2,1.5c0.9,0,1.5-0.2,2-0.5s0.7-0.7,0.7-1.2c0-0.4-0.2-0.8-0.5-1.2
		s-1.3-0.9-2.8-1.5c-2.4-1-3.5-2.5-3.5-4.4c0-1.4,0.5-2.5,1.6-3.3s2.5-1.2,4.3-1.2c1.5,0,2.7,0.2,3.7,0.6v3c-1-0.7-2.2-1-3.6-1
		c-0.8,0-1.4,0.1-1.9,0.4s-0.7,0.7-0.7,1.2c0,0.4,0.2,0.8,0.5,1.1s1.1,0.8,2.4,1.3c1.5,0.6,2.5,1.3,3.1,2s0.8,1.6,0.8,2.6
		c0,1.5-0.5,2.6-1.5,3.3s-2.5,1.1-4.4,1.1c-1.7,0-3.2-0.3-4.3-0.8V15.2z"/>
	<path class="st0" d="M35.7,19h-8.9V3.9H30v12.5h5.7V19z"/>
	<path class="st1" d="M57.6,19V9.8c0-0.8,0-1.9,0.1-3.2h-0.1c-0.2,1-0.4,1.6-0.5,1.9L53.4,19h-2.6L47.1,8.7c-0.1-0.2-0.3-0.9-0.5-2
		h-0.1c0.1,1.3,0.1,2.5,0.1,3.8V19h-2.9V3.9h4.7l3.3,9.1c0.3,0.8,0.5,1.5,0.6,2.1h0.1c0.2-0.8,0.4-1.5,0.6-2.1l3.3-9.1h4.6V19H57.6z
		"/>
	<path class="st1" d="M64.2,8.9c0.5-0.3,1.1-0.5,2-0.7s1.5-0.3,2.1-0.3c3,0,4.5,1.5,4.5,4.5V19h-3v-1.6h0c-0.7,1.2-1.8,1.8-3.2,1.8
		c-1,0-1.8-0.3-2.5-0.9S63.2,17,63.2,16c0-2.1,1.2-3.3,3.7-3.6l3-0.4c0-1.3-0.7-1.9-2-1.9c-1.3,0-2.5,0.4-3.6,1.2V8.9z M67.8,14.1
		c-1.1,0.1-1.7,0.7-1.7,1.5c0,0.4,0.1,0.7,0.4,1s0.6,0.4,1.1,0.4c0.6,0,1.2-0.2,1.6-0.7s0.6-1,0.6-1.7v-0.8L67.8,14.1z"/>
	<path class="st1" d="M85.8,19h-3.1v-6c0-1.7-0.6-2.6-1.9-2.6c-0.6,0-1.1,0.2-1.5,0.7s-0.6,1.1-0.6,1.8V19h-3.2V8.2h3.2v1.7h0
		c0.8-1.3,1.9-2,3.5-2c2.4,0,3.6,1.5,3.6,4.5V19z"/>
	<path class="st1" d="M88.7,8.9c0.5-0.3,1.1-0.5,2-0.7s1.5-0.3,2.1-0.3c3,0,4.5,1.5,4.5,4.5V19h-3v-1.6h0c-0.7,1.2-1.8,1.8-3.2,1.8
		c-1,0-1.8-0.3-2.5-0.9S87.7,17,87.7,16c0-2.1,1.2-3.3,3.7-3.6l3-0.4c0-1.3-0.7-1.9-2-1.9c-1.3,0-2.5,0.4-3.6,1.2V8.9z M92.3,14.1
		c-1.1,0.1-1.7,0.7-1.7,1.5c0,0.4,0.1,0.7,0.4,1s0.6,0.4,1.1,0.4c0.6,0,1.2-0.2,1.6-0.7s0.6-1,0.6-1.7v-0.8L92.3,14.1z"/>
	<path class="st1" d="M110.5,17.8c0,2-0.6,3.5-1.7,4.6s-2.8,1.6-4.9,1.6c-1.5,0-2.6-0.2-3.5-0.6v-2.7c1.1,0.7,2.2,1,3.4,1
		c1.1,0,2-0.3,2.6-0.9s1-1.4,1-2.5v-0.9h0c-0.8,1.2-1.9,1.8-3.4,1.8c-1.4,0-2.4-0.5-3.3-1.5s-1.2-2.3-1.2-3.9c0-1.8,0.5-3.3,1.4-4.4
		s2.1-1.6,3.5-1.6c1.3,0,2.3,0.5,3,1.6h0V8.2h3.1V17.8z M107.3,12.9c0-0.7-0.2-1.3-0.6-1.8s-1-0.7-1.6-0.7c-0.8,0-1.4,0.3-1.8,0.9
		s-0.7,1.4-0.7,2.5c0,0.9,0.2,1.7,0.6,2.2s1,0.8,1.7,0.8c0.7,0,1.3-0.3,1.7-0.8s0.7-1.3,0.7-2.2V12.9z"/>
	<path class="st1" d="M122.9,14.5h-7.1c0.1,1.7,1.1,2.5,3,2.5c1.2,0,2.2-0.3,3.2-0.9v2.3c-1,0.6-2.3,0.8-3.9,0.8
		c-1.7,0-3.1-0.5-4-1.5s-1.4-2.3-1.4-4.1c0-1.7,0.5-3.1,1.5-4.2s2.3-1.6,3.8-1.6c1.5,0,2.7,0.5,3.6,1.4s1.3,2.2,1.3,3.8V14.5z
		 M120,12.5c0-1.6-0.7-2.4-2-2.4c-0.5,0-1,0.2-1.4,0.7s-0.7,1-0.8,1.8H120z"/>
	<path class="st1" d="M141.9,19h-3.1v-6.2c0-1.7-0.6-2.5-1.8-2.5c-0.6,0-1,0.3-1.4,0.8s-0.6,1.1-0.6,1.8V19h-3.1v-6.2
		c0-1.6-0.6-2.4-1.8-2.4c-0.6,0-1.1,0.2-1.4,0.7s-0.5,1.1-0.5,1.9v6H125V8.2h3.2v1.7h0c0.4-0.6,0.9-1.1,1.5-1.4s1.3-0.5,2-0.5
		c1.5,0,2.6,0.7,3.1,2c0.8-1.4,2-2,3.6-2c2.4,0,3.5,1.5,3.5,4.4V19z"/>
	<path class="st1" d="M154.2,14.5h-7.1c0.1,1.7,1.1,2.5,3,2.5c1.2,0,2.2-0.3,3.2-0.9v2.3c-1,0.6-2.3,0.8-3.9,0.8
		c-1.7,0-3.1-0.5-4-1.5s-1.4-2.3-1.4-4.1c0-1.7,0.5-3.1,1.5-4.2s2.3-1.6,3.8-1.6c1.5,0,2.7,0.5,3.6,1.4s1.3,2.2,1.3,3.8V14.5z
		 M151.2,12.5c0-1.6-0.7-2.4-2-2.4c-0.5,0-1,0.2-1.4,0.7s-0.7,1-0.8,1.8H151.2z"/>
	<path class="st1" d="M166.5,19h-3.1v-6c0-1.7-0.6-2.6-1.9-2.6c-0.6,0-1.1,0.2-1.5,0.7s-0.6,1.1-0.6,1.8V19h-3.2V8.2h3.2v1.7h0
		c0.8-1.3,1.9-2,3.5-2c2.4,0,3.6,1.5,3.6,4.5V19z"/>
	<path class="st1" d="M175.6,18.9c-0.5,0.3-1.2,0.4-2.2,0.4c-2.3,0-3.4-1.2-3.4-3.6v-5.1h-1.8V8.2h1.8V5.8l3.1-0.9v3.3h2.5v2.4h-2.5
		v4.6c0,1.2,0.5,1.7,1.4,1.7c0.4,0,0.7-0.1,1.1-0.3V18.9z"/>
</g>
</svg>
