<?xml version="1.0" encoding="utf-8"?>
<!-- Generator: Adobe Illustrator 22.0.1, SVG Export Plug-In . SVG Version: 6.00 Build 0)  -->
<svg version="1.1" id="图层_1" xmlns="http://www.w3.org/2000/svg" xmlns:xlink="http://www.w3.org/1999/xlink" x="0px" y="0px"
	 viewBox="0 0 395 49.9" style="enable-background:new 0 0 395 49.9;" xml:space="preserve">
<style type="text/css">
	.st0{fill:#FFFFFF;}
	.st1{fill:#0096FF;}
	.st2{fill:none;}
	.st3{enable-background:new    ;}
</style>
<title>seal-logo-2019</title>
<g id="图层_1-2">
	<g id="_179286632">
		<polygon id="_179288072" class="st0" points="39.4,16 26.6,16 26.6,44.3 18.1,44.3 18.1,16 5.3,16 5.3,7.6 39.4,7.6 		"/>
		<path id="_179287952" class="st0" d="M77.1,44.3H65.6L54.9,32.7V21.8H66c0.8,0,1.6-0.3,2.1-0.9c0.6-0.6,0.9-1.3,0.9-2.1
			c0-0.8-0.3-1.6-0.9-2.1c-0.6-0.6-1.3-0.9-2.1-0.9H51.5v28.3h-8.4V7.6h22.8c3,0,5.9,1.2,7.9,3.4c2.2,2,3.4,4.9,3.4,7.9
			c0,3-1.2,5.9-3.4,7.9c-2,2.2-4.9,3.4-7.9,3.4h-2L77.1,44.3z"/>
		<path id="_179287592" class="st0" d="M114.2,25.8c0.1,4.7-1.7,9.3-4.9,12.8c-3.1,3.5-7.5,5.4-12.1,5.4c-4.6,0.1-9.1-1.9-12.1-5.4
			c-3.2-3.5-4.9-8.1-4.9-12.8V7.6h8.4v18.2c0,2.5,0.9,5,2.5,6.9c1.5,1.9,3.8,3,6.2,2.9c2.4,0,4.7-1,6.2-2.9c1.6-1.9,2.4-4.4,2.4-6.9
			V7.6h8.4C114.3,7.6,114.2,25.8,114.2,25.8z"/>
		<path id="_179287880" class="st0" d="M152.7,33c0,3-1.2,5.9-3.4,7.9c-2,2.2-4.9,3.4-7.9,3.4h-22.8v-8.4h22.8
			c0.8,0,1.6-0.3,2.1-0.9c0.6-0.6,0.9-1.3,0.9-2.1c0-0.8-0.3-1.6-0.9-2.1c-0.6-0.6-1.3-0.9-2.1-0.9h-11.6c-3,0-5.9-1.2-7.9-3.4
			c-2.2-2-3.4-4.9-3.4-7.9c0-3,1.2-5.9,3.4-7.9c2-2.2,4.9-3.4,7.9-3.4h22.8v8.4h-22.8c-0.8,0-1.6,0.3-2.1,0.9
			c-0.6,0.5-0.9,1.3-0.9,2.1c0,0.8,0.3,1.6,0.9,2.1c0.6,0.6,1.3,0.9,2.1,0.9h11.6c3,0,5.9,1.2,7.9,3.4C151.5,27.1,152.8,30,152.7,33
			z"/>
		<polygon id="_179287640" class="st0" points="185.5,15.7 172.7,15.7 172.7,44 164.3,44 164.3,15.7 151.5,15.7 151.5,7.3 
			185.5,7.3 		"/>
		<path id="_179288096" class="st0" d="M259.7,44.3h-13.1c-4.9,0-9.5-1.9-13-5.3c-3.5-3.4-5.4-8.1-5.3-13c0-4.9,1.9-9.6,5.3-13
			c3.4-3.5,8.1-5.4,13-5.3h13.1V16h-13.1c-2.6-0.1-5.1,1-6.9,2.9c-1.9,1.8-2.9,4.3-2.9,6.9c-0.1,2.6,1,5.1,2.9,6.9
			c1.8,1.9,4.3,2.9,6.9,2.9h13.1V44.3z"/>
		<polygon id="_179287976" class="st0" points="295.6,44.3 264.1,44.3 264.1,7.6 295.6,7.6 295.6,16 272.6,16 272.6,21.7 
			290.4,21.7 290.4,30.2 272.6,30.2 272.6,35.9 295.6,35.9 		"/>
		<polygon id="_179287856" class="st0" points="333.9,44.3 312.4,44.3 308.7,35.9 320.7,35.9 314.3,21.3 304.1,44.3 294.6,44.3 
			294.6,35.9 298.3,35.9 310.8,7.6 317.6,7.6 		"/>
		<polygon id="_179288240" class="st0" points="372.4,44.3 364,44.3 346.8,23.6 346.8,44.3 338.3,44.3 338.3,7.6 346.8,7.6 
			364,28.4 364,7.6 372.4,7.6 		"/>
		<path id="_179288216" class="st0" d="M217.7,39.2c-3.3,3.2-7.7,4.9-12.3,4.8c-4.7,0-9.3-1.8-12.7-5.2c-3.4-3.3-5.3-7.9-5.2-12.7
			c0-4.7,1.8-9.3,5.2-12.7l0.1-0.1c4.3-1.1,10-0.1,13.3,3.2h-0.9c-2.5,0-5,1-6.7,2.8c-1.8,1.8-2.8,4.2-2.8,6.7
			c0,1.8,0.5,3.6,1.5,5.2v0.2C202.7,39.5,211,42.5,217.7,39.2L217.7,39.2z"/>
		<path id="_179287712" class="st0" d="M223.2,26c0,0.8,0,1.7-0.1,2.5c-0.4,3.8-2.2,7.3-4.9,10c-4.2,1.3-10,0.4-13.4-2.7h0.7
			c2.6,0,5.1-1,7-2.8c1.8-1.8,2.8-4.2,2.8-6.7c0-0.8-0.1-1.6-0.3-2.5c-0.2-1-0.7-2-1.3-2.9c-0.3-0.4-0.5-0.8-0.8-1.2l-0.4-0.6
			c-5.1-6.5-12.5-9.1-18.5-6.5c3.2-2.8,7.3-4.3,11.5-4.2c4.7-0.1,9.3,1.8,12.7,5.1c0.2,0.3,0.5,0.5,0.7,0.7c0.9,1,1.7,2.1,2.4,3.3
			C222.6,20.2,223.3,23.1,223.2,26z"/>
		<path class="st0" d="M204.8,33.9l-8-10.2l7.8,3.9l23.4-20.3L204.8,33.9z"/>
		<path class="st1" d="M218.1,13.7c-3.4-3.3-7.9-5.2-12.7-5.2c-4.2-0.1-8.3,1.4-11.5,4.2c5.9-2.6,13.4-0.1,18.5,6.4l0,0l6-5.2
			L218.1,13.7z"/>
		<path class="st1" d="M221,17.3l-5.9,6.8c0.1,0.7,0.2,1.4,0.2,2.1c0,2.6-1,5-2.8,6.8c-1.9,1.8-4.4,2.8-7,2.8h-0.6l0,0
			c3.4,3.1,9.2,4,13.4,2.7c2.7-2.6,4.5-6.2,4.9-10c0.1-0.8,0.2-1.7,0.1-2.5c0-2.9-0.6-5.7-2-8.3C221.1,17.6,221,17.4,221,17.3z"/>
	</g>
</g>
<g id="图层_1-3">
	<polygon class="st2" points="-65,-26 424,-26 424,216.9 -65,216.9 	"/>
</g>
<g class="st3">
	<path class="st0" d="M376.9,13.5c0-2,0.7-3.7,2.1-5.2c1.4-1.4,3.2-2.1,5.2-2.1c2,0,3.7,0.7,5.2,2.1c1.4,1.4,2.1,3.1,2.1,5.2
		c0,2-0.7,3.7-2.1,5.2c-1.4,1.4-3.1,2.1-5.2,2.1c-2,0-3.8-0.7-5.2-2.1C377.6,17.2,376.9,15.5,376.9,13.5z M377.9,13.5
		c0,1.8,0.6,3.3,1.9,4.5s2.8,1.9,4.5,1.9c1.8,0,3.3-0.6,4.5-1.9s1.9-2.8,1.9-4.5c0-1.8-0.6-3.3-1.9-4.5c-1.2-1.2-2.8-1.9-4.5-1.9
		S381,7.7,379.7,9C378.5,10.2,377.9,11.7,377.9,13.5z M387.8,18h-1.7l-1-2.2c-0.2-0.5-0.5-0.9-0.8-1.2c-0.3-0.3-0.5-0.4-0.8-0.4
		h-0.8V18h-1.4V8.8h2.7c1.1,0,1.9,0.2,2.5,0.7s0.9,1.1,0.9,1.9c0,0.6-0.2,1.2-0.6,1.6s-1,0.7-1.7,0.9c0.3,0.1,0.5,0.3,0.8,0.5
		c0.3,0.3,0.5,0.7,0.7,1.2L387.8,18z M382.7,10V13h1.4c0.6,0,1.1-0.1,1.4-0.4c0.3-0.3,0.5-0.6,0.5-1.2c0-0.5-0.2-0.9-0.5-1.2
		c-0.3-0.2-0.9-0.4-1.6-0.4H382.7z"/>
</g>
</svg>
